<svg width="72" height="73" viewBox="0 0 72 73" xmlns="http://www.w3.org/2000/svg">
<path d="M72.0001 46.1395C70.8203 47.3043 69.6405 48.4678 68.4607 49.63C67.6398 50.4416 67.4293 50.4472 66.6215 49.6431C62.1127 45.142 57.6001 40.6402 53.0838 36.1378C52.8959 35.9499 52.755 35.7414 52.5559 35.4972C51.1901 36.4365 49.8863 37.3044 48.6276 38.2268C47.9157 38.7584 47.0876 39.1132 46.2116 39.2619C43.7919 39.6808 41.7028 40.716 40.012 42.5702C38.4959 44.229 36.8389 45.7638 35.2496 47.3494C34.5902 48.0069 34.6146 48.2887 35.3604 48.8522C36.9065 50.0339 39.1704 50.0734 40.5211 48.6775C41.6201 47.5504 42.6797 47.0976 44.301 47.2705C46.3582 47.4884 48.2575 46.7069 49.8525 45.3261C50.525 44.7418 51.2108 44.1745 51.8833 43.5902C52.2929 43.2352 52.7137 43.0135 53.1721 43.4831C53.5478 43.8589 53.4257 44.2966 52.8546 44.7982C52.2835 45.2998 51.6842 45.8014 51.1375 46.2673L59.5915 54.8C60.4557 54.1087 61.3443 53.4042 62.2217 52.6865C62.396 52.5291 62.5527 52.3534 62.6894 52.1624C63.037 51.7266 63.4183 51.3809 63.9895 51.7867C64.4122 52.091 64.3972 52.6245 63.8354 53.1731C63.0013 53.9865 62.0958 54.7267 61.2053 55.4894C61.0213 55.6268 60.8285 55.7523 60.6285 55.8652C62.0938 58.5722 60.6286 61.052 58.0773 61.5142C58.5019 62.9288 58.3328 64.2532 57.2601 65.3259C56.1874 66.3985 54.9155 66.6146 53.4332 66.1337C53.1477 67.4713 52.4939 68.527 51.1788 69.0512C49.8637 69.5753 48.6576 69.2935 47.4966 68.4481C47.397 68.6942 47.3088 68.9028 47.228 69.1075C46.6137 70.5391 45.0938 71.4802 43.6172 71.2154C42.9446 71.0951 42.5369 71.2867 42.1142 71.7601C41.1749 72.7915 40.0026 73.2123 38.6218 72.8873C37.1865 72.5492 36.3092 71.6343 35.9673 70.2009C35.9297 70.0412 35.8865 69.8853 35.832 69.673C34.6503 69.921 33.5475 69.7838 32.595 68.991C31.6425 68.1983 31.2292 67.1763 31.2405 65.8763C30.1603 65.8876 29.1909 65.6208 28.4225 64.8637C27.6541 64.1066 27.3554 63.1298 27.3742 61.9988C25.364 61.935 23.9118 61.0952 23.5079 59.0306C23.104 56.966 24.5599 55.7675 25.9088 54.5088C25.4147 53.8813 24.947 53.2783 24.4679 52.6828C24.1166 52.2451 23.9682 51.7885 24.4811 51.4015C24.9658 51.0371 25.3509 51.3057 25.6721 51.7209C26.0479 52.2018 26.4105 52.6922 26.8238 53.1374C26.9038 53.2177 27.001 53.2788 27.108 53.3163C27.2151 53.3537 27.3292 53.3664 27.4419 53.3534C29.9048 52.4817 32.2512 54.2101 32.2869 56.6654C32.2943 56.7523 32.3087 56.8383 32.3301 56.9228C35.0899 57.2985 35.9728 58.1702 36.2997 60.7852C39.392 61.3789 40.0063 62.0496 40.2449 65.1061C43.0197 65.8838 43.944 67.103 43.6453 69.596C43.9971 69.71 44.3764 69.7066 44.7261 69.5863C45.0758 69.466 45.377 69.2354 45.5842 68.9291C45.8406 68.5893 45.9801 68.1756 45.9817 67.7499C45.9834 67.3242 45.8472 66.9095 45.5935 66.5676C45.2962 66.2064 44.9756 65.865 44.6336 65.5457C44.0399 64.9445 43.4425 64.3484 42.8413 63.7572C42.4656 63.3815 42.2777 62.972 42.6985 62.5399C43.1193 62.1078 43.5383 62.2825 43.9178 62.662C45.3756 64.1198 46.8359 65.5764 48.2988 67.0317C48.8229 67.5558 49.426 67.8808 50.1888 67.7418C50.5517 67.6918 50.8925 67.5379 51.1698 67.2985C51.4472 67.0592 51.6493 66.7447 51.7518 66.3929C51.8787 66.0366 51.8983 65.6509 51.8081 65.2836C51.7179 64.9163 51.522 64.5835 51.2446 64.3265C49.9802 63.0415 48.6933 61.7753 47.4177 60.4997C47.2693 60.3513 47.0326 60.2085 47.0063 60.0357C46.9575 59.7257 46.918 59.2842 47.0909 59.0964C47.2637 58.9085 47.709 58.9404 48.0302 58.9818C48.2012 59.0024 48.3477 59.241 48.4961 59.3894C50.0892 60.9775 51.6829 62.5655 53.2773 64.1536C53.8897 64.7604 54.6112 65.0065 55.4585 64.7003C55.8186 64.5836 56.135 64.3607 56.3663 64.061C56.5977 63.7613 56.7331 63.3987 56.7547 63.0208C56.8336 62.3201 56.5386 61.7527 56.0446 61.2643C54.6449 59.8816 53.2547 58.4877 51.8608 57.0975L51.5133 56.75C51.1488 56.3743 51.0285 55.9647 51.4174 55.5758C51.8063 55.187 52.2271 55.2865 52.5953 55.651C53.3769 56.4275 54.1571 57.2046 54.9362 57.9824C55.3344 58.3806 55.7289 58.7807 56.131 59.1734C57.0853 60.1127 58.2895 60.1822 59.1255 59.3612C59.9616 58.5403 59.9015 57.2948 58.9678 56.3554C57.5456 54.9258 56.1141 53.5075 54.6863 52.0853L50.0028 47.4226C49.9709 47.3907 49.9239 47.3719 49.9426 47.385C48.791 47.8058 47.7051 48.3244 46.561 48.5893C45.5984 48.7846 44.6142 48.8516 43.6341 48.7884C42.969 48.7621 42.5069 48.8992 42.0429 49.3914C40.5174 51.0014 38.6162 51.5913 36.4764 51.0108C35.6082 50.7453 34.8002 50.3126 34.098 49.7371C32.9708 48.8504 32.9708 47.4489 33.9834 46.4213C35.7155 44.6742 37.4607 42.9396 39.2192 41.2176C39.4057 41.0676 39.6102 40.9413 39.8279 40.8418L34.0472 37.156C33.8594 37.3232 33.6715 37.4885 33.5005 37.6651C29.6818 41.4699 25.8619 45.2747 22.0407 49.0796C21.1746 49.9418 20.9698 49.9418 20.1019 49.0796C19.0893 48.0707 18.0729 47.0638 17.0659 46.0494C16.4554 45.4313 16.4479 45.1101 17.0547 44.5145C21.5635 40.0059 26.078 35.5059 30.598 31.0148C31.1428 30.4718 31.464 30.4794 32.0295 31.0336C33.0647 32.0518 34.0961 33.0831 35.1181 34.1107C35.9372 34.9279 35.9465 35.0801 35.1725 36.0833C37.1 37.0226 38.5542 38.7378 40.7484 39.1736C41.1242 39.2487 41.5526 39.1191 41.9321 39.0027C43.3129 38.58 44.6861 38.1328 46.0557 37.6745C46.5663 37.5316 47.0573 37.3258 47.5173 37.062C48.7892 36.2317 50.0234 35.3393 51.2502 34.4846C51.1262 34.1389 50.8745 33.8026 50.9346 33.5227C50.9985 33.1959 51.2916 32.8878 51.5452 32.6285C52.5259 31.6216 53.5272 30.6334 54.5247 29.6434C55.1917 28.9821 55.496 28.9821 56.1611 29.6434L71.9231 45.3918C71.9381 45.405 71.97 45.4031 71.9944 45.4069L72.0001 46.1395ZM69.9167 45.9197L55.4002 31.2533L53.0838 33.5734L67.5853 48.2267L69.9167 45.9197ZM21.0525 47.7984L33.6866 35.0782L31.2931 32.6698L18.6591 45.3824L21.0525 47.7984ZM36.6116 62.3051C36.2002 62.4929 35.7211 62.6113 35.3905 62.8987C34.6541 63.5459 33.9566 64.2359 33.3014 64.9652C32.9732 65.3385 32.7993 65.8227 32.815 66.3195C32.8307 66.8163 33.0348 67.2885 33.3859 67.6403C33.732 68.0142 34.2115 68.2364 34.7205 68.259C35.2294 68.2815 35.7267 68.1024 36.1044 67.7606C36.8315 67.1031 37.5284 66.4061 38.1878 65.6809C38.7514 65.0535 38.8416 64.2945 38.4696 63.528C38.1089 62.7954 37.4814 62.4384 36.6116 62.3051ZM32.5725 58.5177C32.3282 58.6135 31.8661 58.6756 31.5749 58.933C30.748 59.6528 29.9709 60.4279 29.2491 61.253C28.6461 61.9594 28.8358 63.0152 29.5572 63.7216C30.2786 64.4279 31.3251 64.5744 32.0352 63.9657C32.8318 63.2806 33.5789 62.5398 34.2708 61.749C34.8025 61.1422 34.8344 60.387 34.485 59.6449C34.1356 58.9029 33.5118 58.6117 32.5725 58.5177ZM24.8831 58.3862C25.0277 59.273 25.3922 59.8892 26.1474 60.2329C26.496 60.4099 26.8912 60.4737 27.2778 60.4154C27.6644 60.3572 28.0232 60.1798 28.3042 59.9079C28.9467 59.3275 29.5591 58.7131 30.1528 58.0819C30.3378 57.8969 30.4846 57.6772 30.5847 57.4355C30.6849 57.1937 30.7364 56.9346 30.7364 56.673C30.7364 56.4113 30.6849 56.1522 30.5847 55.9104C30.4846 55.6687 30.3378 55.449 30.1528 55.264C29.9677 55.079 29.7481 54.9322 29.5063 54.832C29.2646 54.7319 29.0054 54.6804 28.7438 54.6804C28.4821 54.6804 28.2229 54.7319 27.9812 54.832C27.7394 54.9322 27.5198 55.079 27.3348 55.264C26.7051 55.8253 26.1116 56.4258 25.5575 57.0618C25.2607 57.4319 25.1048 57.9391 24.885 58.3862H24.8831ZM42.1762 68.6566C42.1636 68.2949 42.0521 67.9436 41.8541 67.6407C41.656 67.3378 41.379 67.0947 41.0527 66.938C40.7265 66.7813 40.3636 66.7168 40.0033 66.7515C39.643 66.7862 39.2991 66.9188 39.0088 67.135C38.5821 67.4611 38.1983 67.8398 37.8666 68.2622C37.6333 68.5628 37.4915 68.9242 37.4581 69.3032C37.4247 69.6822 37.5012 70.0628 37.6783 70.3996C37.8554 70.7364 38.1257 71.015 38.4569 71.2023C38.7881 71.3896 39.1662 71.4776 39.5461 71.4558C40.7034 71.4032 42.1687 69.9003 42.1687 68.6566H42.1762Z" />
<path d="M31.2198 1C31.3682 1.37572 31.6349 1.7364 31.6462 2.11025C31.6951 3.62817 31.6669 5.14798 31.6669 6.76171H33.4554C34.5224 6.76171 34.7028 6.94958 34.7047 8.03918C34.7047 8.69294 34.7047 9.35421 34.7047 10.0944C36.0686 10.0944 37.3742 10.0775 38.678 10.0944C39.2857 10.0857 39.8924 10.1487 40.4853 10.2822C41.4013 10.52 42.2139 11.0518 42.7983 11.7961C43.3828 12.5403 43.7067 13.4559 43.7203 14.4021C43.7504 19.0648 43.7298 23.7276 43.7373 28.3903C43.7373 28.9407 43.5326 29.3578 42.9614 29.3502C42.3415 29.3502 42.1874 28.8749 42.1892 28.3151C42.1968 23.8628 42.1968 19.4099 42.1892 14.9563C42.1892 12.7602 41.0621 11.6442 38.8528 11.6424H34.7027C34.7027 12.4295 34.7027 13.1453 34.7027 13.8667C34.6896 14.6576 34.4323 14.9168 33.6395 14.9168C25.7904 14.9168 17.94 14.9168 10.0884 14.9168C9.29753 14.9168 9.04581 14.6576 9.03266 13.861C9.03266 13.1603 9.03266 12.4615 9.03266 11.6987C8.79219 11.6781 8.59302 11.6461 8.392 11.6461C7.22159 11.6461 6.04931 11.6461 4.87702 11.6461C2.6677 11.6461 1.54426 12.7733 1.54426 14.9657V63.8248C1.54426 63.9657 1.54426 64.1066 1.54426 64.2475C1.58183 65.8218 2.6602 67.0241 4.23077 67.1387C5.18325 67.2082 6.14511 67.1519 7.21407 67.1519C7.21407 66.6127 7.21407 66.1092 7.21407 65.6038C7.21407 65.0985 7.42074 64.6646 8.03131 64.6927C8.60806 64.7172 8.74897 65.1211 8.7471 65.6227C8.7471 67.1631 8.7471 68.7055 8.7471 70.4695L10.5149 68.899C12.3241 67.2871 11.9991 67.3397 13.7613 68.8858C14.3004 69.3592 14.8339 69.8383 15.4689 70.4018V62.5304C14.6179 62.7502 13.7782 63.0658 12.9253 63.171C11.2096 63.3842 9.47771 62.9289 8.08874 61.8995C6.69976 60.8701 5.76024 59.3457 5.46502 57.6423C4.85633 53.9996 7.10889 50.6106 10.6709 49.8103C12.0421 49.5104 13.4725 49.6415 14.7664 50.1856C16.0602 50.7298 17.1544 51.6604 17.899 52.8503C18.6436 54.0401 19.0024 55.431 18.9263 56.8325C18.8501 58.2341 18.3427 59.5779 17.4735 60.68C17.2316 61.0077 17.0929 61.4002 17.0752 61.8072C17.0339 63.5599 17.0564 65.3146 17.0564 67.1782H18.9896C19.9026 67.1782 20.8156 67.1782 21.7306 67.1782C22.2509 67.1782 22.6154 67.428 22.5966 67.9709C22.5797 68.4725 22.2209 68.6961 21.7324 68.698H17.9356H17.0564V71.1834C17.0867 71.4629 17.081 71.7451 17.0395 72.0231C16.9606 72.3124 16.8216 72.7238 16.6074 72.8027C16.4467 72.8423 16.2791 72.846 16.1168 72.8136C15.9544 72.7811 15.8012 72.7132 15.6681 72.6149C14.6555 71.7808 13.6917 70.8885 12.7111 70.0168L12.1475 69.5189C11.0334 70.5052 9.93065 71.4765 8.83351 72.4571C8.49159 72.7614 8.09516 73.1371 7.67622 72.8065C7.40757 72.5942 7.2573 72.1058 7.23288 71.73C7.17464 70.7532 7.21407 69.7706 7.21407 68.7036C6.35552 68.7036 5.56272 68.7036 4.7718 68.7036C1.83732 68.6867 0.00187867 66.8438 0 63.9019V14.898C0 11.9561 1.82417 10.1207 4.76804 10.0963C6.16765 10.085 7.56729 10.0963 9.03078 10.0963C9.03078 9.2584 9.0195 8.51261 9.03078 7.76679C9.04205 7.02098 9.29566 6.76923 10.0565 6.75983C10.6878 6.75983 11.319 6.75983 12.0648 6.75983V5.06907C12.0648 4.08468 12.0235 3.09841 12.0855 2.11777C12.108 1.74205 12.3635 1.37761 12.5119 1.00752L31.2198 1ZM10.607 13.3369H33.1191V8.35478H10.607V13.3369ZM13.6485 2.57802V6.71099H30.0906V2.57802H13.6485ZM6.8853 56.4569C6.8853 57.4972 7.19384 58.5142 7.77185 59.3792C8.34985 60.2442 9.17138 60.9185 10.1326 61.3166C11.0938 61.7147 12.1514 61.8189 13.1718 61.616C14.1922 61.413 15.1295 60.912 15.8652 60.1763C16.6008 59.4407 17.1018 58.5034 17.3048 57.4831C17.5078 56.4627 17.4036 55.4051 17.0054 54.4439C16.6073 53.4827 15.9331 52.6612 15.068 52.0832C14.203 51.5052 13.186 51.1967 12.1456 51.1967C10.754 51.2066 9.42239 51.7641 8.43892 52.7486C7.45545 53.7331 6.89931 55.0653 6.89095 56.4569H6.8853Z" />
<path d="M53.7186 1.00001C53.9311 1.21107 54.1229 1.44192 54.2916 1.68944C55.2797 3.4685 56.2605 5.25883 57.2129 7.04915C57.3871 7.37626 57.4811 7.74007 57.4872 8.1106C57.506 12.9362 57.506 17.7579 57.4872 22.576C57.4872 24.603 56.0819 26.2731 54.2164 26.5812C52.2382 26.9062 50.3914 25.8617 49.7433 24.0093C49.588 23.5692 49.5061 23.1065 49.5009 22.6398C49.4834 17.7692 49.4834 12.8979 49.5009 8.02603C49.5063 7.69885 49.5873 7.37735 49.7377 7.08672C50.677 5.28512 51.6483 3.49294 52.6196 1.70637C52.7801 1.45236 52.9584 1.21002 53.1532 0.981201L53.7186 1.00001ZM55.926 20.3216V8.54829H51.0829V20.3216H55.926ZM51.0791 21.9447C50.9194 23.1546 51.1843 24.1408 52.242 24.7627C52.6373 25.0175 53.1011 25.1455 53.5712 25.1294C54.0413 25.1133 54.4952 24.9539 54.8721 24.6725C55.8115 24.0169 56.0613 23.07 55.9035 21.941L51.0791 21.9447ZM55.4 6.92518L53.4744 3.39713L51.5732 6.9327L55.4 6.92518Z" />
<path d="M26.709 20.0999H37.0962C37.3291 20.0999 37.6185 20.0342 37.7838 20.1431C38.0261 20.3066 38.3042 20.5846 38.3361 20.842C38.3624 21.0562 38.105 21.3793 37.8871 21.5296C37.6992 21.6573 37.393 21.631 37.1356 21.631C30.2096 21.631 23.2823 21.631 16.3538 21.631C16.1434 21.631 15.8691 21.6817 15.7395 21.5728C15.5009 21.3699 15.1909 21.0599 15.204 20.81C15.2172 20.5602 15.5704 20.2991 15.8296 20.1281C15.978 20.0286 16.2392 20.0961 16.4496 20.0961L26.709 20.0999Z" />
<path d="M26.7935 26.1378C30.2152 26.1378 33.6369 26.1378 37.0586 26.1378C37.2934 26.1378 37.5752 26.072 37.7499 26.1772C37.9998 26.3275 38.3135 26.5962 38.3379 26.8366C38.3624 27.0771 38.09 27.4002 37.8589 27.5749C37.6823 27.7046 37.3648 27.6689 37.1075 27.6689C30.219 27.6689 23.3305 27.6689 16.4421 27.6689C16.2091 27.6689 15.9142 27.7196 15.7582 27.6013C15.514 27.4134 15.1947 27.0959 15.2172 26.8498C15.2397 26.6037 15.5817 26.3388 15.8409 26.1678C15.9893 26.0683 16.2504 26.1378 16.4609 26.1378C19.9038 26.1315 23.3481 26.1315 26.7935 26.1378Z" />
<path d="M11.428 39.7184C10.0021 39.7184 8.57429 39.7184 7.15025 39.7184C6.59793 39.7184 6.12259 39.5925 6.12822 38.9482C6.13386 38.3038 6.61856 38.1817 7.16337 38.1836C10.0152 38.1836 12.867 38.1836 15.7188 38.1836C16.258 38.1836 16.7409 38.2982 16.7352 38.9594C16.7296 39.6207 16.2411 39.7109 15.7057 39.7109C14.2798 39.7147 12.8614 39.7184 11.428 39.7184Z"/>
<path d="M19.6885 33.6861C18.5175 33.6861 17.3477 33.6861 16.1792 33.6861C15.6325 33.6861 15.1647 33.5678 15.176 32.9009C15.1873 32.2772 15.6419 32.1494 16.1529 32.1494H23.1716C23.7183 32.1494 24.1955 32.2809 24.1767 32.9365C24.1579 33.5922 23.66 33.688 23.1265 33.6786C21.9805 33.6823 20.8345 33.6861 19.6885 33.6861Z" />
<path d="M9.84418 45.7431C8.90484 45.7431 7.96552 45.7431 7.03934 45.7431C6.51895 45.7431 6.14319 45.5553 6.12628 45.0105C6.10938 44.4657 6.48325 44.2139 6.99049 44.2102C8.88419 44.1989 10.7779 44.1989 12.6716 44.2102C13.1732 44.2102 13.5376 44.4619 13.5095 45.0274C13.4832 45.5515 13.1338 45.7375 12.6491 45.7356L9.84418 45.7431Z" />
<path d="M42.9838 32.6341C43.2431 32.6375 43.4908 32.7426 43.6734 32.9267C43.8561 33.1108 43.9593 33.3592 43.9607 33.6185C43.9594 33.7529 43.931 33.8857 43.8772 34.0089C43.8234 34.1321 43.7453 34.2432 43.6477 34.3356C43.55 34.428 43.4347 34.4997 43.3087 34.5466C43.1827 34.5935 43.0486 34.6146 42.9144 34.6085C42.6572 34.5928 42.4162 34.4773 42.243 34.2865C42.0697 34.0958 41.9779 33.8449 41.9869 33.5874C41.996 33.3299 42.1053 33.0862 42.2915 32.9081C42.4777 32.73 42.7261 32.6316 42.9838 32.6341Z" />
<path d="M27.5149 67.9315C27.514 68.1909 27.4121 68.4398 27.2308 68.6253C27.0495 68.8109 26.803 68.9184 26.5437 68.9253C26.4105 68.9319 26.2773 68.9115 26.1522 68.8653C26.0271 68.8191 25.9127 68.7481 25.8157 68.6565C25.7188 68.5649 25.6415 68.4546 25.5883 68.3323C25.5351 68.2101 25.5073 68.0783 25.5064 67.9449C25.5055 67.8116 25.5316 67.6794 25.5831 67.5564C25.6346 67.4335 25.7106 67.3222 25.8062 67.2293C25.9019 67.1364 26.0154 67.0639 26.1399 67.016C26.2644 66.9682 26.3972 66.946 26.5305 66.9509C26.7899 66.9542 27.0377 67.0585 27.2215 67.2416C27.4053 67.4247 27.5106 67.6721 27.5149 67.9315Z" />
<path d="M9.39521 56.4738C9.40371 55.7536 9.69364 55.0653 10.203 54.556C10.7124 54.0468 11.4007 53.757 12.1209 53.7487C12.8412 53.7403 13.5361 54.0141 14.0571 54.5114C14.5781 55.0087 14.8839 55.6901 14.9091 56.4099C14.9219 56.7772 14.8612 57.1435 14.7305 57.487C14.5998 57.8306 14.4017 58.1445 14.1479 58.4104C13.8941 58.6763 13.5897 58.8888 13.2525 59.0354C12.9154 59.182 12.5524 59.2597 12.1848 59.2639C11.8173 59.2682 11.4525 59.1989 11.1121 59.0602C10.7717 58.9215 10.4624 58.7161 10.2025 58.4562C9.94264 58.1962 9.73737 57.8869 9.59872 57.5465C9.46007 57.206 9.39087 56.8413 9.39521 56.4738ZM12.155 55.2282C11.9977 55.2242 11.8413 55.2516 11.6947 55.3087C11.5481 55.3657 11.4144 55.4514 11.3013 55.5607C11.1881 55.67 11.0979 55.8007 11.0357 55.9452C10.9736 56.0897 10.9409 56.2451 10.9395 56.4023C10.9316 56.5653 10.9568 56.7283 11.0136 56.8812C11.0705 57.0342 11.1577 57.1741 11.2701 57.2924C11.3824 57.4107 11.5176 57.505 11.6674 57.5697C11.8172 57.6344 11.9786 57.668 12.1418 57.6685C12.4587 57.6664 12.7627 57.5422 12.9904 57.3218C13.2182 57.1014 13.3523 56.8017 13.3648 56.485C13.3722 56.322 13.3463 56.1591 13.2888 56.0064C13.2312 55.8537 13.1431 55.7143 13.03 55.5967C12.9168 55.4791 12.7808 55.3858 12.6304 55.3225C12.4799 55.2591 12.3182 55.227 12.155 55.2282Z" />
</svg>
