<svg width="63" height="72" viewBox="0 0 63 72" xmlns="http://www.w3.org/2000/svg">
<path d="M29.5424 71.9981C28.2965 71.8102 27.045 71.6731 25.8067 71.4514C19.8737 70.3899 14.6538 67.8253 10.2575 63.7201C2.7785 56.7365 -0.602683 48.0564 0.0878058 37.8563C0.487464 31.9756 2.5477 26.6491 5.98326 21.8544C6.23328 21.4751 6.37831 21.0362 6.40356 20.5824C6.4636 19.6017 6.40353 18.6153 6.42793 17.6308C6.4521 17.4622 6.41732 17.2904 6.32944 17.1445C6.24155 16.9986 6.10599 16.8877 5.94574 16.8304C4.58165 16.1672 3.89302 15.0268 3.86488 13.5125C3.84049 12.248 3.8555 10.9817 3.86488 9.71723C3.86488 7.62235 4.86869 6.33536 6.89137 5.81681C6.98144 5.79426 7.06964 5.76233 7.18785 5.72663C7.18785 4.72146 7.18785 3.7163 7.18785 2.72052C7.20098 1.00892 8.19354 0.00939408 9.88786 0C10.9874 0 12.0869 0 13.1865 0C14.0477 0 14.423 0.375764 14.4343 1.24566C14.4493 2.72053 14.4343 4.19541 14.4343 5.67028C14.468 5.70222 14.4961 5.74918 14.5337 5.76046C16.9729 6.49883 17.7422 7.53406 17.7422 10.0817V11.9305C19.0143 11.4401 20.2039 10.8953 21.4442 10.5176C33.8523 6.74307 44.827 9.28886 54.051 18.4086C60.0834 24.3701 63.1343 31.8347 62.9955 40.3138C62.7816 53.4767 56.5822 63.0625 44.8645 69.0108C41.4759 70.7299 37.8152 71.613 34.0175 71.8835C33.8341 71.9088 33.6528 71.9478 33.4752 72L29.5424 71.9981ZM56.6404 55.8065C54.8916 55.8065 53.3474 55.8065 51.8032 55.8065C50.9851 55.8065 50.4898 55.4025 50.4898 54.7562C50.4898 54.1099 50.972 53.7041 51.7863 53.7022C53.5425 53.7022 55.2988 53.6684 57.0531 53.7154C57.6479 53.7323 57.9106 53.5049 58.1433 52.9995C60.8073 47.3389 61.5962 40.9742 60.3949 34.8333C60.0834 33.1686 59.543 31.5453 59.1096 29.9107C57.3684 30.3072 53.1372 32.4472 51.9289 33.5369C51.7683 33.7226 51.6797 33.96 51.6794 34.2057C51.6531 35.1884 51.6794 36.1747 51.6643 37.1574C51.6418 38.6717 50.9945 39.8309 49.621 40.496C49.1801 40.7102 49.0844 40.9676 49.0881 41.411C49.1088 43.0512 49.1219 44.6933 49.0881 46.3316C49.0733 47.1612 48.7646 47.9586 48.2171 48.5814C47.6697 49.2043 46.9191 49.6121 46.0992 49.7323C45.3544 49.8103 44.6043 49.8254 43.8569 49.7774C43.0647 49.7673 42.2994 49.4884 41.686 48.9864C41.0725 48.4845 40.6472 47.789 40.4795 47.0136C40.3792 46.4148 40.339 45.8074 40.3595 45.2006C40.3426 43.9662 40.3595 42.7337 40.3595 41.458C39.8885 41.4843 39.5114 41.473 39.1455 41.5294C35.8732 42.0423 33.5653 44.8173 33.7867 47.9549C34.0193 51.2541 36.6762 53.6834 40.078 53.6966C42.2095 53.6966 44.3392 53.6966 46.4688 53.6966C47.3582 53.6966 47.8254 54.0723 47.8104 54.7656C47.7953 55.4232 47.33 55.8009 46.4969 55.8027C44.2735 55.8027 42.05 55.8196 39.8266 55.8027C35.6724 55.767 32.3644 52.7647 31.7284 48.4753C31.1805 44.7741 33.6929 40.9601 37.4587 39.7652C37.8002 39.6581 38.1435 39.5585 38.5319 39.442C37.9127 38.5909 37.7814 37.6815 37.8095 36.7215C37.8377 35.6205 37.8095 34.5176 37.8208 33.4166C37.8097 32.9962 37.85 32.576 37.9409 32.1653C38.3668 30.5702 39.487 29.7229 41.095 29.4317C41.095 28.4171 41.095 27.4382 41.095 26.4575C41.1081 24.682 42.1101 23.6806 43.8926 23.6637C44.9221 23.6537 45.9522 23.6537 46.9829 23.6637C48.0243 23.6637 48.3657 24.0226 48.3695 25.0653C48.3695 26.5139 48.3695 27.9624 48.3695 29.4467C49.666 29.6214 50.6211 30.2753 51.1934 31.2616L58.0814 27.7933C58.0814 27.8234 58.0814 27.7482 58.0551 27.6881C53.5795 18.7951 46.4694 13.3647 36.725 11.3969C36.2991 11.3105 36.1621 11.4833 36.0326 11.8516C35.4697 13.5425 34.9406 15.2334 34.3177 16.9018C33.5672 18.8915 32.8485 20.9 31.9291 22.8107C30.991 24.7647 29.3022 25.8788 27.1595 26.2452C26.0994 26.4331 25.0317 26.5627 23.9697 26.6942C23.3843 26.7675 22.9621 26.5063 22.7989 25.9295C22.7564 25.7998 22.7415 25.6626 22.7551 25.5268C22.7688 25.3909 22.8107 25.2595 22.8783 25.1409C22.9458 25.0223 23.0374 24.9191 23.1472 24.8382C23.257 24.7572 23.3825 24.7002 23.5157 24.6708C24.19 24.4857 24.8817 24.3711 25.5796 24.3288C28.0845 24.2461 29.7714 23.0437 30.6664 20.7196C31.2293 19.2372 31.7921 17.7492 32.3325 16.2499C32.9292 14.5589 33.4846 12.853 34.0738 11.1076C33.8467 11.0681 33.6985 11.023 33.5315 11.0136C28.1572 10.63 22.7819 11.746 18.003 14.2377C17.7751 14.3842 17.6012 14.6012 17.5077 14.8558C17.1324 15.7407 16.5695 16.4321 15.6933 16.8154C15.2692 17.0033 15.181 17.2438 15.1885 17.6665C15.211 19.2372 15.211 20.8079 15.1885 22.3786C15.1622 24.3419 13.9088 25.8469 12.01 26.0517C10.0661 26.264 8.12413 26.2903 6.90076 24.2987C5.48226 26.2508 3.61345 30.3391 3.39955 31.9906H4.15008C6.35102 31.9906 8.55569 31.9079 10.751 32.0132C13.2334 32.1334 15.2091 31.2184 16.8791 29.4617C17.5408 28.7666 18.2207 28.0889 18.9187 27.4288C19.4271 26.9441 20.0613 26.9498 20.476 27.3932C20.8907 27.8366 20.8719 28.4265 20.3991 28.8962C19.4065 29.8901 18.4177 30.8896 17.382 31.8384C15.7537 33.3597 13.5905 34.1743 11.3646 34.1043C8.71893 34.0705 6.0733 34.1043 3.42956 34.0855C2.91357 34.0855 2.70344 34.2264 2.60775 34.7487C1.45193 41.0446 2.17242 47.1019 4.84056 52.9263C4.90386 53.109 5.02775 53.2646 5.19159 53.3672C5.35544 53.4697 5.54938 53.513 5.74121 53.4899C8.26862 53.4636 10.8073 53.4786 13.3253 53.4749C13.459 53.4739 13.5925 53.4645 13.725 53.4467C13.725 51.4345 13.6593 49.5012 13.7437 47.5622C13.8188 45.8506 14.9315 44.6538 16.5883 44.2499C16.7366 44.2061 16.8825 44.1547 17.0254 44.0958V42.5796C17.0254 42.0629 17.0254 41.5482 17.0254 41.0315C17.0423 39.4326 18.063 38.4011 19.6617 38.3823C20.6918 38.3692 21.7256 38.3823 22.752 38.3823C23.9697 38.3823 24.2924 38.7055 24.2962 39.923C24.2962 41.3227 24.2962 42.7224 24.2962 44.1334C24.4388 44.1766 24.5477 44.2179 24.6602 44.2442C26.4728 44.6801 27.5573 46.0179 27.5741 47.8647C27.5854 49.2701 27.591 50.6829 27.5741 52.0827C27.5554 53.2306 27.1351 54.3166 26.1294 54.8126C25.0392 55.3518 24.9398 56.1146 25.0336 57.1047C25.073 57.4993 25.0336 57.9014 25.0449 58.2997C25.029 58.4591 25.0617 58.6196 25.1387 58.76C26.1932 59.9098 27.2796 60.9995 29.0039 61.0409C29.6811 61.0636 30.3545 61.1504 31.0153 61.3001C31.1552 61.3222 31.2888 61.374 31.407 61.4522C31.5251 61.5304 31.6251 61.6331 31.7002 61.7534C31.7753 61.8736 31.8236 62.0086 31.8421 62.1492C31.8606 62.2898 31.8486 62.4328 31.8071 62.5684C31.6758 63.1132 31.1974 63.3988 30.5632 63.3199C30.0333 63.2293 29.4991 63.1666 28.9626 63.132C27.7383 63.1097 26.5499 62.7131 25.5571 61.9953C25.3695 61.8675 25.1912 61.7398 24.9942 61.6026C24.2868 63.6693 23.1029 64.5073 20.9751 64.511C20.6711 64.511 20.3653 64.511 20.0614 64.511C17.8285 64.4791 16.3274 62.9948 16.2937 60.7534C16.2712 59.3011 16.2937 57.8469 16.2937 56.3946C16.2937 56.1466 16.2712 55.8967 16.258 55.643H6.3135C10.265 61.9164 15.6257 66.2151 22.5794 68.4641C26.6475 69.7896 30.961 70.1832 35.2014 69.6158C34.6066 68.2818 34.0756 67.0869 33.5409 65.8957C33.2294 65.2062 33.3814 64.6256 33.9668 64.3438C34.5297 64.077 35.0682 64.28 35.4059 64.9394C35.7437 65.5989 36.0777 66.3279 36.3817 67.0381C36.6988 67.7896 36.9821 68.5411 37.2879 69.3189C45.5963 67.5059 51.9646 63.0343 56.6404 55.8065ZM8.52753 19.2767V21.3828C8.52753 23.7389 8.84276 24.0451 11.2144 24.0132C12.5147 23.9963 13.0908 23.4232 13.0908 22.1118C13.0908 20.2161 13.0908 18.3203 13.0908 16.4227C13.0908 15.4984 13.3385 15.2165 14.2391 15.0644C15.1397 14.9122 15.6182 14.3955 15.6294 13.5031C15.6501 12.1447 15.6426 10.7863 15.6294 9.42977C15.6294 8.78909 15.3461 8.26867 14.7457 8.03382C14.1453 7.79897 13.5617 7.71631 12.9669 8.15971C12.3548 8.64306 11.5985 8.90699 10.8189 8.90938C10.0394 8.91176 9.28151 8.65245 8.66642 8.17285C8.04723 7.71254 7.43178 7.79708 6.82573 8.04884C6.21968 8.3006 5.97011 8.87929 5.96824 9.53875C5.96824 10.8257 5.9551 12.1146 5.96824 13.4016C5.97949 14.3936 6.43542 14.9046 7.40549 15.0681C8.25171 15.2146 8.5088 15.5078 8.52006 16.3946C8.53507 17.3565 8.52753 18.3185 8.52753 19.2767ZM18.3914 57.7924V59.7595C18.3914 62.202 18.6522 62.4556 21.0877 62.4312C22.3505 62.418 22.9283 61.8469 22.9321 60.5862C22.9321 58.6905 22.9321 56.7929 22.9321 54.8971C22.9321 53.922 23.146 53.6721 24.1067 53.4899C25.0148 53.3152 25.4595 52.8192 25.4689 51.9061C25.4839 50.5721 25.4689 49.2381 25.4689 47.9042C25.4689 47.2597 25.2231 46.7318 24.6321 46.48C24.041 46.2283 23.4106 46.1287 22.7914 46.5965C22.1853 47.0674 21.4414 47.3254 20.6744 47.3309C19.9073 47.3363 19.1598 47.0888 18.5471 46.6266C17.9054 46.1437 17.2806 46.2114 16.6502 46.4838C16.0197 46.7562 15.8133 47.3312 15.8114 47.9869C15.8114 49.2513 15.7964 50.5157 15.8114 51.7802C15.8246 52.8304 16.2486 53.3114 17.275 53.5049C18.0968 53.6609 18.3595 53.9427 18.3745 54.775C18.4027 55.7708 18.3895 56.7778 18.3914 57.7849V57.7924ZM42.4647 42.9742C42.4647 43.6524 42.4947 44.3325 42.4647 45.0108C42.3446 47.3593 42.9225 47.7839 45.1497 47.6938C46.4932 47.6393 46.996 47.1733 46.9998 45.8037C46.9998 43.9249 46.9998 42.0592 46.9998 40.186C46.9998 39.2222 47.2399 38.9497 48.1744 38.7788C49.0637 38.6153 49.5366 38.1174 49.5572 37.1949C49.5872 35.8384 49.5722 34.48 49.5572 33.1235C49.5572 32.4866 49.2795 31.9549 48.6735 31.7295C48.0674 31.504 47.4895 31.4176 46.8929 31.861C45.5532 32.8567 43.9188 32.8624 42.5923 31.861C41.9712 31.3988 41.3577 31.4852 40.7516 31.7445C40.1456 32.0038 39.9091 32.5655 39.9148 33.2344C39.9279 34.5214 39.9148 35.8084 39.9148 37.0953C39.9148 38.0968 40.3651 38.5984 41.3408 38.775C42.1926 38.9234 42.4497 39.2184 42.4553 40.0902C42.4703 41.0521 42.4647 42.0066 42.4647 42.9666V42.9742ZM46.253 25.7924C45.3449 25.7924 44.5099 25.7698 43.6787 25.8112C43.5751 25.8363 43.4795 25.8875 43.4011 25.9598C43.3226 26.0321 43.2639 26.1232 43.2303 26.2245C43.1846 27.248 43.2027 28.2733 43.2847 29.2945C43.3635 30.046 44.1421 30.5514 44.8627 30.4782C45.2273 30.4492 45.5688 30.288 45.8231 30.0247C46.0774 29.7615 46.2269 29.4143 46.2436 29.0484C46.2793 27.9944 46.253 26.9441 46.253 25.7849V25.7924ZM22.1722 40.5073C21.2979 40.5073 20.5042 40.5073 19.7123 40.5073C19.2958 40.5073 19.1288 40.7102 19.1344 41.1179C19.1476 41.9615 19.1344 42.8088 19.1438 43.6505C19.1663 44.5261 19.748 45.1386 20.5623 45.1874C20.7619 45.2069 20.9633 45.1848 21.154 45.1227C21.3447 45.0606 21.5205 44.9596 21.6704 44.8263C21.8203 44.6929 21.9411 44.53 22.0252 44.3478C22.1093 44.1655 22.1549 43.9678 22.1591 43.767C22.2191 42.7168 22.1722 41.6646 22.1722 40.5073ZM12.2896 2.10427C11.4227 2.10427 10.5859 2.07796 9.75277 2.12681C9.64528 2.16295 9.54877 2.2259 9.47229 2.30971C9.3958 2.39353 9.34189 2.49547 9.31562 2.60592C9.27809 3.56411 9.26871 4.52608 9.31562 5.4824C9.34983 5.8365 9.51516 6.16495 9.77907 6.40314C10.043 6.64132 10.3863 6.77197 10.7416 6.76938C11.5222 6.79381 12.2183 6.29404 12.2652 5.52561C12.3403 4.41523 12.2896 3.28792 12.2896 2.10427Z" />
</svg>
