<?xml version="1.0" encoding="UTF-8"?>
<svg id="Layer_1" data-name="Layer 1" xmlns="http://www.w3.org/2000/svg" viewBox="0 0 521.23 78.53">
  <path d="m439.78,39.44c0-11.84,0-23.67,0-35.51,0-3.39.05-3.48,3.54-3.45,7.22.07,14.34-.14,21.61.02,6.53.34,11.59,3.96,14.83,9.68,3.37,5.94,4.83,12.5,5.3,19.21.46,6.59.34,13.21.64,19.81.33,7.35,2.99,10.26,5.75,10.86,3.27.71,5.76-1.22,6.79-4.21,3.66-10.71-.38-42.89-.37-51.47,0-3.8.1-3.9,3.99-3.91,5.48-.01,10.97.04,16.45-.02,2.07-.02,2.92.67,2.91,2.88-1.29,7.6-.03,21.45-.08,35.37-.06,15.39-2.95,32.03-14.89,37.96-2.77,1.37-6.09,2.01-10.23,1.86-16.41-.6-19.87-10.83-18.53-25.98.67-7.58,2.47-15.98,1.27-24.54-.5-3.57-1.61-7.11-3.53-10.63-3.32-4.14-6.62-4.28-10.05-.22-2.53,2.99-2.97,6.61-2.98,10.3-.04,15.67-.02,31.33-.02,47q0,3.62-3.5,3.63c-5.13,0-10.27,0-15.41,0-3.47,0-3.48,0-3.49-3.38,0-11.75,0-23.5,0-35.25Z" style="fill: #272c32;"/>
  <path d="m410.71,39.75c-.07-11.03-2.28-21.42-9.39-30.25-7.03-8.73-16.07-8.88-23.42-.42-4.74,5.46-7.31,11.97-8.71,18.98-1.19,5.95-1.08,6.12,4.35,8.76,3.9,1.9,4.61,5.81,1.56,8.97-1.15,1.19-2.7,2.06-3.57,3.4-1.51,2.3-1.94,3.81-1.12,6.48,2.37,7.67,6.59,14,13.45,18.51,3.88,2.55,7.91,2.3,11.83.01,4.11-2.39,6.98-5.98,9.19-10.1,4.06-7.59,5.88-15.74,5.83-24.34h0ZM386.53.02c17.64.05,28.89,4.47,38.47,15.57,14.16,16.41,12.46,39.01-4.58,52.45-11.45,9.03-24.6,11.64-38.82,10.07-7.93-.88-15.62-2.67-22.61-6.6-2.76-1.56-5.44-3.54-7.58-5.86-4-4.34-3.55-9.33.81-13.36,3.66-3.38,8.06-5.39,12.83-6.7,2.17-.59,4.35-1.24,6.43-2.09.26-.11.48-.34.67-.63,1.17-1.75-.86-2.46-2.32-2.41-2.51.09-3.95.51-6.46.62-3.2.14-6.52.59-9.6-.02-8.17-1.63-11.56-8.63-8.54-16.87,2.17-5.93,6.26-10.35,11.17-14.15,5.2-4.02,13.68-8.01,22.04-9.46,2.5-.43,5.71-.64,8.1-.55Z" style="fill: #272c32;"/>
  <path d="m157.05,78.33c-.57,0-3.32.1-4.29-.03.73-1.19,2.17-2.59,2.8-3.48,6.28-8.88,12.58-17.75,18.86-26.64,2.78-3.93,2.8-4.23.02-8.17-.41-.58-.77-1.21-1.02-1.83-1.03-2.63.25-4.84,3.18-6.46,1.01-.56,2.04-1.31,3.91-2.23,9.65-4.17,15.25-12.13,21.67-20.04,1.34-1.65,3.17-3.22,4.68-5.39-18.5.77-35.35,7.49-51.25,16.65v-4.51c0-4.26.1-8.53-.04-12.8-.07-2.2.71-3.08,2.8-2.96h74.38c-.81,1.3-1.59,2.51-2.13,3.27-2.66,3.77-5.44,7.46-8.01,11.28-6.65,9.9-16.53,14.58-27.67,17.09-4.47,1.01-9.09,1.36-13.62,2.15-1.37.24-3.44.57-3.28,1.54-.03,1.51,2.74,1.23,4.04,1.23,4.34,0,8.7-.4,13.01-.07,6.09.46,8.1,4.6,4.72,9.88-3.7,5.79-7.86,11.28-11.81,16.9-2.54,3.6-5.08,7.2-7.34,11.46,4.14-.63,8.32-1.08,12.41-1.94,11.88-2.51,23.14-6.88,34.16-11.88,3.07-1.39,3.38-1.21,3.4,2.15.02,4-.04,8.01.02,12.01.02,1.8-.56,2.15-2.53,2.64l-71.08.15Z" style="fill: #272c32;"/>
  <path d="m68.56,7.32h-.31s-29.11,0-29.11,0c-6.52,0-11.74.75-15.2,1.98-4.21,1.5-5.95,3.99-4.14,6.49,1.16,1.61,3.33,2.7,5.86,3.9,8.88,4.23,23.76,6.78,27.75,13.28.2.32.38.66.53,1,1.26,2.78,1.2,6.21-.3,8.47-.86,1.29-2.64,2.32-4.24,3.04-6.15,2.77-16.61,2.09-22.32,3.75-4.12,1.2-7.32,4.52-7.37,9.37-.06,5.57-.1,11.14.01,16.71.05,2.39-.39,2.86-2.72,2.81-4.52-.04-8.58.06-14.26,0-1.68.01-2.75-.27-2.75-2v-.08s.06-22.88.06-22.88c0-.38.02-.76.04-1.14,1.12-13.85,16.48-20.25,28.93-19.49,1.56.1,3.11.29,4.66.58,3.17.59,6.32,1.59,9.44,2.99.62.28,1.22.57,1.83.88,2.9,1.49,6.36,1.12,5.28-.96-.76-1.46-4.05-3.3-5.36-3.86-1.85-.69-3.67-1.31-5.47-1.88-5.64-1.79-11.12-3.04-17.13-4.08-.82-.14-1.65-.28-2.49-.42-1-.16-2.01-.32-3.02-.5C-5.3,21.48-1.17,2.2,12.35.75c1.66-.18,3.39-.24,5.47-.24l45.3-.03c2.89,0,9.27-.4,11.7.97,1.76,1,.99,5.39-2.21,5.77-1.42.17-3.04.1-4.05.1Z" style="fill: #272c32;"/>
  <path d="m316.87,61.56c0-4.44-.06-8.88.02-13.32.06-2.94-1.06-5.03-3.76-6.26-.63-.29-1.24-.64-1.83-1-3.06-1.89-4.02-5.94-2.06-8.95,1.31-2.02,3.01-3.8,4.61-5.62,2.04-2.32,3.17-4.86,3.09-8.04-.13-4.87.09-9.75.01-14.62-.05-2.76.98-3.37,5.06-3.25l14.72-.04c1.87,0,3.27.21,3.66.45.72.45.96,1.24.95,2.53-.03,3.94.04,13.04-.42,16.48-.37,2.83-2.47,5.01-4.77,7.08-4.69,4.2-10.47,5.77-16.4,6.92-.7.14-1.4.25-2.1.38-1.16.21-3.98.82-4.25,1.88-.17.67.22,1.44.88,1.7.18.07.36.11.53.1,2.42-.1,4.83-.61,7.25-.66,3.47-.07,7.07-.43,10.4.28,5.2,1.1,8.82,5.86,8.83,11.17.02,8.8-.06,17.61.05,26.41,0,1.2-.83,3.06-4.64,2.99-5.61.06-10.78.06-16.03.04-3.01.3-3.88-.37-3.81-2.79.12-4.61.04-9.23.04-13.84h-.02Z" style="fill: #272c32;"/>
  <path d="m100.61,32.4c0,9.14-.2,18.29.12,27.42.11,3.09,1.04,6.39,2.47,9.14,2.71,5.26,7.54,6.97,13.26,6.05,5.3-.85,9.01-4.14,9.77-9.23.79-5.3.98-10.71.98-16.1,0-2.31.51-4.02-1.39-5.7-1.31-1.17-3.17-2.58-4.38-3.29-4.9-2.86-3.91-6.77-.46-10.25,1.87-1.89,4.74-3.75,5.65-6.75.53-1.76.96-3.55.9-5.71-.14-4.87.09-9.75.06-14.62-.01-1.96.72-2.87,2.74-2.87h19.68c1.31,0,1.94.91,1.91,2.53-.08,4.87.33,9.79-.18,14.61-.27,2.57-1.6,5.36-3.26,7.4-2.04,2.51-4.81,4.61-7.28,6.1-.27.16-.53.31-.77.44-2.05,1.17-4.66,1.8-7.35,2.25-1.02.17-3.56.47-5.74.81-1.65.26-2.97.43-3.36.7-.83.57-.61,1.78,1.52,1.78h1.24s10.55-.03,10.55-.03c.38,0,.76,0,1.13,0,1.63,0,3.24.12,4.8.47,5.88,1.32,8.63,5.4,8.66,11.41.01,2.61-.01,5.22,0,7.84.05,7.21-3.22,12.47-9.43,15.98-6.05,3.42-12.74,4.76-19.51,5.16-9.45.55-18.97.88-28.22-1.94-1.99-.61-3.97-1.32-5.84-2.22-6.64-3.2-10.13-8.26-10.05-15.92.18-17.76.05-35.52.06-53.29,0-4.12.03-4.01,4.53-4.02,4.06-.01,8.12-.01,12.18,0,4.76.02,4.98-.18,4.99,3.65.01,9.4,0,18.81,0,28.21Z" style="fill: #272c32;"/>
  <path d="m237.2,78.33c-.57,0-3.32.1-4.29-.03.73-1.19,2.17-2.59,2.8-3.48,6.28-8.88,12.58-17.75,18.86-26.64,2.78-3.93,2.8-4.23.02-8.17-.41-.58-.77-1.21-1.02-1.83-1.03-2.63.25-4.84,3.18-6.46,1.01-.56,2.04-1.31,3.91-2.23,9.65-4.17,15.25-12.13,21.67-20.04,1.34-1.65,3.17-3.22,4.68-5.39-18.5.77-35.35,7.49-51.25,16.65v-4.51c0-4.26.1-8.53-.04-12.8-.07-2.2.71-3.08,2.8-2.96h74.38c-.81,1.3-1.59,2.51-2.13,3.27-2.66,3.77-5.44,7.46-8.01,11.28-6.65,9.9-16.53,14.58-27.67,17.09-4.47,1.01-9.09,1.36-13.62,2.15-1.37.24-3.44.57-3.28,1.54-.03,1.51,2.74,1.23,4.04,1.23,4.34,0,8.7-.4,13.01-.07,6.09.46,8.1,4.6,4.72,9.88-3.7,5.79-7.85,11.28-11.81,16.9-2.54,3.6-5.08,7.2-7.34,11.46,4.14-.63,8.32-1.08,12.41-1.94,11.88-2.51,23.14-6.88,34.16-11.88,3.07-1.39,3.38-1.21,3.4,2.15.02,4-.04,8.01.02,12.01.02,1.8-.56,2.15-2.53,2.64l-71.08.15Z" style="fill: #272c32;"/>
</svg>