<svg width="57" height="72" viewBox="0 0 57 72" fill="none" xmlns="http://www.w3.org/2000/svg">
<path d="M25.8488 72C23.591 71.1007 24.0849 69.0513 24.0302 67.1527C23.0047 67.1527 22.0305 67.1527 21.0614 67.1527C19.865 67.1527 18.8668 66.7109 18.4276 65.5433C17.9658 64.3123 17.975 62.9477 18.4532 61.7233C18.5865 61.3727 18.6241 61.1203 18.4532 60.7627C17.7695 59.3602 18.002 56.8375 19.0856 56.0924C19.9846 55.4736 19.9863 54.7443 19.9607 53.8642C19.9368 53.0952 19.9368 52.3256 19.9607 51.5554C20.0308 49.3868 19.207 47.7494 17.385 46.5854C15.082 45.1071 13.114 43.1405 11.6131 40.8177C8.68189 36.3438 7.42395 31.4246 8.24777 26.0794C9.56725 17.505 14.3546 11.8022 22.2749 8.8587C23.3944 8.44322 24.6028 8.2644 25.7821 8.03825C26.5957 7.88223 27.0931 8.21356 27.199 8.84818C27.305 9.48281 26.8828 9.9912 26.0556 10.1174C21.6955 10.7801 17.9883 12.7383 14.999 16.0604C12.372 18.9828 10.7141 22.4172 10.2834 26.3844C9.42879 34.2418 12.2353 40.4285 18.6019 44.8656C20.9042 46.4697 22.0767 48.5891 22.0203 51.4397C21.9963 52.6984 22.0203 53.9571 22.0203 55.2737H35.1398C35.1398 54.2516 35.092 53.2103 35.1535 52.1742C35.2202 51.0435 35.28 49.8952 35.5381 48.7978C35.8799 47.3252 36.8268 46.2119 37.9942 45.2916C39.2846 44.266 40.6451 43.3036 41.7988 42.136C44.6274 39.2609 46.2614 35.7249 46.875 31.6928C46.9026 31.5326 46.9385 31.374 46.9827 31.2177C47.1536 30.5883 47.5775 30.364 48.1791 30.4481C48.3088 30.4717 48.4326 30.5215 48.5433 30.5946C48.6541 30.6676 48.7496 30.7625 48.8243 30.8737C48.8991 30.9849 48.9515 31.1103 48.9787 31.2425C49.0058 31.3746 49.0071 31.511 48.9824 31.6437C48.4201 35.7039 46.9041 39.3345 44.3283 42.4866C42.9382 44.156 41.3179 45.6082 39.5187 46.7975C37.9446 47.8634 37.2182 49.3833 37.2114 51.2907C37.2114 52.5038 37.2216 53.7169 37.2114 54.9301C37.2114 55.2895 37.2814 55.5209 37.6216 55.7102C38.4761 56.1871 38.9752 56.9497 38.9889 57.963C39.0026 58.9762 39.1769 60.0667 38.6043 61.0379C38.5777 61.1205 38.5681 61.2078 38.576 61.2944C38.5839 61.381 38.6093 61.465 38.6505 61.541C39.2128 62.7209 39.0983 63.9638 38.8812 65.1717C38.6864 66.2586 37.7326 67.0282 36.6439 67.1001C35.738 67.165 34.8271 67.1369 33.9092 67.1544C33.6665 67.1544 33.4238 67.1772 33.1247 67.1913C33.0598 69.0443 33.5794 71.1024 31.3113 72H25.8488ZM28.5442 60.1701H35.3672C36.9225 60.1701 36.9225 60.1701 36.9208 58.6099C36.9208 57.5054 36.8524 57.437 35.7432 57.437H21.7553C20.2342 57.437 20.2342 57.437 20.2376 59.0306C20.2376 60.0824 20.3299 60.1683 21.381 60.1683C23.7682 60.1719 26.1559 60.1724 28.5442 60.1701ZM28.5271 65.0192H35.2851C36.9328 65.0192 36.9328 65.0192 36.9242 63.352C36.9242 62.3948 36.849 62.3194 35.8987 62.3194C31.2361 62.3194 26.5735 62.3194 21.9109 62.3194C20.094 62.3194 20.2325 62.2475 20.2393 64.09C20.2393 64.8982 20.3624 65.0192 21.1605 65.0209C23.616 65.0221 26.0715 65.0215 28.5271 65.0192ZM31.0464 67.207H26.112C26.112 67.9591 26.071 68.6604 26.1376 69.3511C26.1761 69.478 26.2454 69.5929 26.339 69.6848C26.4325 69.7768 26.5473 69.8429 26.6726 69.877C27.9425 69.9243 29.2176 69.9243 30.4875 69.877C30.6125 69.8427 30.7269 69.7764 30.8201 69.6845C30.9134 69.5925 30.9824 69.4778 31.0207 69.3511C31.0874 68.6586 31.0464 67.9574 31.0464 67.207Z" fill="#16262E"/>
<path d="M23.2243 18.5186L25.1246 17.7266C25.1246 16.7645 25.1246 15.8007 25.1246 14.8351C25.1246 13.6941 25.6405 13.0881 26.7538 13.0385C27.9309 12.9872 29.1133 12.9872 30.2992 13.0385C31.3859 13.0864 31.9088 13.6888 31.9195 14.7695C31.9195 15.7351 31.9195 16.7025 31.9195 17.716L33.7862 18.5062C34.4315 17.8365 35.075 17.1472 35.7362 16.4828C36.6651 15.5615 37.4327 15.5633 38.3669 16.4828C39.1079 17.2081 39.8418 17.9416 40.5686 18.6834C41.4745 19.6082 41.4657 20.3736 40.5492 21.3073C39.989 21.8814 39.3951 22.4235 38.8651 23.0224C38.7918 23.1233 38.7427 23.2397 38.7215 23.3625C38.7002 23.4854 38.7075 23.6115 38.7427 23.7311C39.3047 25.1379 39.3189 25.1325 40.87 25.1325C41.3894 25.1325 41.9088 25.1184 42.4265 25.1414C43.3642 25.1857 43.9262 25.6942 43.9634 26.6385C44.0113 27.8788 44.0131 29.1367 43.9634 30.384C43.928 31.3727 43.3217 31.906 42.3095 31.9326C41.4852 31.9538 40.6573 31.9591 39.8277 31.9326C39.4111 31.9166 39.1859 32.0335 39.0654 32.4641C38.9061 32.9196 38.7209 33.3657 38.5105 33.8C39.1682 34.429 39.8578 35.0703 40.5226 35.7347C41.4674 36.6809 41.4586 37.4587 40.5226 38.4119C39.8135 39.1336 39.0961 39.8499 38.3705 40.561C37.4362 41.4823 36.6722 41.4876 35.7451 40.584C35.2132 40.0525 34.6584 39.5334 34.1496 38.9788C33.8553 38.6564 33.6178 38.6581 33.1834 38.7609C32.0276 39.0355 31.7422 39.7247 31.8894 40.7984C31.9399 41.3625 31.9399 41.9299 31.8894 42.494C31.8486 43.3675 31.2795 43.9593 30.4091 43.9787C29.1363 44.0071 27.8629 44.0071 26.5889 43.9787C25.7203 43.9575 25.1441 43.3639 25.1158 42.4887C25.0874 41.6134 25.0892 40.7435 25.1158 39.8718C25.1282 39.4607 24.9633 39.3048 24.6105 39.0905C23.6231 38.4916 22.9105 38.683 22.251 39.5812C21.9082 40.0018 21.5253 40.3881 21.1076 40.7347C20.3613 41.4132 19.5689 41.4433 18.8421 40.7506C17.9663 39.9238 17.1154 39.0739 16.2893 38.201C15.5802 37.4498 15.6015 36.6525 16.3407 35.8836C17.0232 35.1749 17.7589 34.4963 18.468 33.7964C18.25 33.2507 18.0816 32.7334 17.8405 32.2656C17.779 32.1798 17.6996 32.1085 17.6078 32.0565C17.5159 32.0044 17.4139 31.973 17.3086 31.9645C16.4843 31.9308 15.6565 31.9644 14.8268 31.9485C13.6533 31.9343 13.0541 31.3922 13.024 30.2494C12.9938 29.1066 12.9903 27.9372 13.024 26.7838C13.0594 25.6906 13.6196 25.1715 14.724 25.1485C15.5501 25.1325 16.3762 25.1237 17.2058 25.1485C17.6047 25.1627 17.727 24.9713 17.9256 24.6577C18.5566 23.6549 18.3492 22.9214 17.4186 22.2534C16.9935 21.9149 16.6065 21.5311 16.2645 21.1089C15.6104 20.3772 15.5909 19.6135 16.2645 18.8977C17.0853 18.0119 17.938 17.1703 18.8119 16.3464C19.5937 15.6076 20.3773 15.6466 21.1892 16.4066C21.5437 16.745 21.8982 17.0976 22.2386 17.4573C22.579 17.817 22.9193 18.1837 23.2243 18.5186ZM20.0333 38.8123C20.7424 38.0912 21.4675 37.3949 22.1606 36.6507C22.6712 36.1033 23.2065 36.0395 23.8731 36.3531C24.6566 36.7216 25.4685 37.0423 26.2787 37.3435C26.931 37.5827 27.2803 37.9672 27.2537 38.7024C27.2182 39.7301 27.2537 40.7612 27.2537 41.7995H29.8029C29.8029 40.7648 29.8365 39.7761 29.7922 38.7875C29.7568 38.0008 30.0918 37.5721 30.8186 37.3205C31.6159 37.0428 32.3971 36.721 33.1586 36.3566C33.8199 36.0413 34.3623 36.0785 34.8746 36.6348C35.5589 37.3772 36.2698 38.093 36.8814 38.729L38.8438 36.9714C38.0851 36.2379 37.3636 35.5274 36.6279 34.8347C36.1067 34.3421 36.057 33.8142 36.3602 33.1763C36.7147 32.4357 37.0315 31.6792 37.3104 30.9067C37.649 29.9783 37.8581 29.794 38.8438 29.7887C39.8294 29.7834 40.808 29.7887 41.8113 29.7887V27.2604C40.7902 27.2604 39.8064 27.2604 38.8207 27.2604C37.9149 27.2604 37.6383 27.0301 37.3246 26.1708C37.0533 25.4231 36.7591 24.6808 36.4258 23.9579C36.0127 23.0614 36.0305 22.8045 36.7484 22.0904C37.4664 21.3764 38.1524 20.7209 38.8668 20.0263L37.0214 18.1943C36.2804 18.9544 35.5394 19.7092 34.8019 20.4693C34.3499 20.9335 33.8606 21.0008 33.265 20.7244C32.4371 20.3382 31.5933 19.9785 30.7353 19.6614C30.0918 19.4293 29.7798 19.0501 29.7975 18.3538C29.8224 17.3262 29.7975 16.295 29.7975 15.255H27.2448C27.2448 16.2702 27.2448 17.2323 27.2448 18.1961C27.2448 19.16 27.0569 19.3974 26.1333 19.7322C25.4065 19.9962 24.6885 20.2868 23.9865 20.6181C23.0665 21.0451 22.7988 21.0238 22.0596 20.2797C21.3806 19.5958 20.7123 18.8995 20.0989 18.2688L18.1986 20.0246C18.9608 20.7758 19.6912 21.5111 20.4411 22.2233C20.9427 22.7017 20.9835 23.2102 20.7017 23.8179C20.3471 24.5815 20.0192 25.3611 19.7284 26.1513C19.4005 27.0372 19.1417 27.2551 18.1737 27.2587H15.2487V29.7905C16.3124 29.7905 17.3175 29.81 18.3262 29.7905C19.0495 29.7728 19.4537 30.097 19.6859 30.7667C19.9553 31.541 20.2656 32.3029 20.6095 33.047C21.0385 33.9754 21.019 34.2412 20.278 34.9782C19.5972 35.6568 18.9076 36.3265 18.2127 37.0086L20.0333 38.8123Z" fill="#16262E"/>
<path d="M31.104 8.00064C33.4783 8.27718 35.7829 9.01342 37.9006 10.1719C43.6456 13.3431 47.2297 18.2766 48.7005 24.8957C48.8256 25.4979 48.9217 26.1064 48.9885 26.7188C49.0287 27.0038 48.9626 27.2942 48.804 27.5296C48.6453 27.7649 48.4062 27.9273 48.1364 27.9829C47.637 28.0829 47.1377 27.7365 46.9877 27.1223C46.6247 25.6349 46.4338 24.0868 45.9106 22.6584C43.4036 15.8339 38.6777 11.7218 31.8215 10.3094C31.467 10.2362 31.1091 10.1772 30.7631 10.0773C30.2007 9.91298 29.9451 9.49694 30.0098 8.89877C30.0644 8.34168 30.5381 7.98278 31.104 8.00064Z" fill="#16262E"/>
<path d="M29.9828 2.52672C29.9828 3.00628 30.0215 3.48742 29.9828 3.96541C29.9198 4.59434 29.2977 5 28.5085 5C27.7193 5 27.0705 4.58962 27.039 3.96698C26.9882 2.98742 26.9858 2.00471 27.039 1.02515C27.0729 0.378924 27.683 0 28.5085 0C29.334 0 29.886 0.378923 29.9925 1.02358C29.9961 1.06547 29.9961 1.10747 29.9925 1.14937C29.9925 1.60849 29.9925 2.0676 29.9925 2.52672H29.9828Z" fill="#16262E"/>
<path d="M2.487 29.9625C1.96555 29.9625 1.44251 29.9821 0.921062 29.9625C0.353927 29.9364 0.0183788 29.584 0.00262505 29.0162C-0.00680215 28.8903 0.00922575 28.7637 0.0496825 28.6445C0.0901392 28.5254 0.154129 28.4163 0.237585 28.3242C0.321042 28.232 0.422135 28.159 0.534391 28.1096C0.646647 28.0602 0.767609 28.0356 0.889562 28.0373C1.95294 27.9867 3.02103 27.9884 4.08599 28.0373C4.21315 28.0347 4.3394 28.0602 4.45633 28.112C4.57326 28.1639 4.6782 28.2409 4.76418 28.3379C4.85015 28.435 4.91521 28.5499 4.955 28.675C4.9948 28.8001 5.00842 28.9325 4.99498 29.0635C4.95717 29.6607 4.60114 29.9347 4.04976 29.987C3.98832 29.987 3.92531 29.9984 3.8623 30H2.48227L2.487 29.9625Z" fill="#16262E"/>
<path d="M54.4519 28.9945C53.9302 28.9945 53.4068 29.0069 52.8867 28.9945C52.3665 28.982 52.0339 28.818 52.0024 28.5355C51.9677 28.2306 52.3176 28.0384 52.8441 28.0202C53.9475 27.992 55.0509 27.9945 56.1638 28.0202C56.2812 28.0213 56.3969 28.0351 56.5037 28.0609C56.6104 28.0866 56.7059 28.1237 56.784 28.1697C56.8622 28.2158 56.9214 28.2699 56.9579 28.3285C56.9944 28.3872 57.0074 28.4492 56.996 28.5107C56.9803 28.799 56.6508 28.9804 56.0818 28.9937C55.5395 29.0061 54.9957 28.9937 54.4535 28.9937L54.4519 28.9945Z" fill="#16262E"/>
<path d="M13 45.1273C12.7611 45.5275 12.6267 45.8668 12.4046 46.1107C11.6376 46.936 10.8444 47.7383 10.0437 48.5293C9.44461 49.1201 8.82685 49.1487 8.33787 48.6493C7.84888 48.15 7.89181 47.5058 8.45918 46.9093C9.26918 46.0529 10.0941 45.2137 10.9339 44.3916C11.296 44.0352 11.7682 43.8389 12.2143 44.1687C12.5241 44.3993 12.7256 44.7842 13 45.1273Z" fill="#16262E"/>
<path d="M45.7696 44C46.1046 44.2304 46.3876 44.3511 46.5889 44.5741C47.2855 45.3544 47.9632 46.1589 48.6331 46.9764C49.1049 47.5542 49.1143 48.2137 48.7039 48.6745C48.2935 49.1353 47.7903 49.113 47.3122 48.5686C46.6062 47.7641 45.8844 46.9708 45.2507 46.092C45.1423 45.9121 45.0667 45.7077 45.0285 45.4915C44.9903 45.2753 44.9905 45.0521 45.029 44.8361C45.0903 44.5184 45.4882 44.2973 45.7696 44Z" fill="#16262E"/>
<path d="M11.2195 12C10.8846 11.8303 10.6127 11.7537 10.4335 11.5871C9.72455 10.9444 9.03133 10.2807 8.35383 9.60796C7.90269 9.15749 7.89011 8.66346 8.27523 8.28205C8.66036 7.90065 9.20738 7.90065 9.66167 8.31509C10.3987 8.96058 11.1007 9.6417 11.7649 10.3558C11.8704 10.5023 11.9426 10.6683 11.977 10.8431C12.0114 11.0179 12.0072 11.1977 11.9646 11.3708C11.8907 11.6201 11.4898 11.7853 11.2195 12Z" fill="#16262E"/>
<path d="M45.7579 12C45.5447 11.8491 45.1821 11.6983 45.081 11.466C44.9674 11.2005 44.9627 10.7298 45.1354 10.5397C45.8887 9.7196 46.6866 8.93908 47.5258 8.20153C47.8822 7.88625 48.3444 7.95715 48.6961 8.30109C49.0478 8.64503 49.1163 9.08855 48.7848 9.43702C48.0176 10.2441 47.199 11.0044 46.3835 11.7677C46.2637 11.8793 46.0474 11.8959 45.7579 12Z" fill="#16262E"/>
<path d="M34 29.0244C33.9956 30.2091 33.6698 31.3658 33.0637 32.3488C32.4575 33.3318 31.5982 34.0971 30.594 34.5481C29.5899 34.9992 28.4858 35.1158 27.4209 34.8834C26.356 34.6509 25.3781 34.0798 24.6103 33.242C23.8425 32.4041 23.3193 31.3371 23.1066 30.1754C22.8938 29.0136 23.0011 27.8092 23.4149 26.7139C23.8287 25.6185 24.5304 24.6814 25.4317 24.0204C26.3329 23.3595 27.3934 23.0045 28.4794 23C29.2049 22.9985 29.9235 23.1533 30.594 23.4556C31.2645 23.7579 31.8737 24.2016 32.3867 24.7613C32.8996 25.3211 33.3062 25.9858 33.583 26.7174C33.8599 27.4489 34.0016 28.2329 34 29.0244ZM31.9375 29.0132C31.9356 28.5207 31.8448 28.0335 31.6702 27.5793C31.4957 27.1251 31.2409 26.7129 30.9203 26.3662C30.5998 26.0194 30.2197 25.745 29.8019 25.5584C29.3842 25.3719 28.9368 25.277 28.4854 25.2791C28.034 25.2812 27.5873 25.3802 27.171 25.5706C26.7547 25.761 26.3768 26.039 26.059 26.3887C25.7411 26.7384 25.4895 27.153 25.3185 27.6087C25.1476 28.0645 25.0606 28.5526 25.0625 29.045C25.0813 30.027 25.4471 30.9632 26.0834 31.658C26.7197 32.3529 27.5775 32.7529 28.4776 32.7744C30.3356 32.7969 31.9358 31.055 31.9358 29.0132H31.9375Z" fill="#16262E"/>
</svg>
