<svg width="57" height="72" viewBox="0 0 57 72" xmlns="http://www.w3.org/2000/svg">
<path d="M35.423 0.0169069C35.8842 0.167145 36.3548 0.294849 36.8029 0.475135C38.2675 1.06107 39.4384 2.01131 40.1914 3.39914C41.1026 5.07055 42.4505 5.82926 44.3744 5.81048C45.2696 5.80194 46.1574 5.9716 46.986 6.30951C47.8147 6.64743 48.5674 7.14682 49.2003 7.77846C49.8331 8.41011 50.3333 9.16131 50.6715 9.98813C51.0098 10.8149 51.1794 11.7008 51.1703 12.5938C51.1553 14.4717 51.9101 15.7863 53.5291 16.7347C56.9308 18.7235 57.9757 22.6672 56.0122 26.0871C55.0916 27.6908 55.1123 29.1895 56.0367 30.782C57.9775 34.1305 56.9045 38.1249 53.548 40.0837C52.0193 40.9776 51.1722 42.1889 51.1797 44.0011C51.1948 47.9036 48.5273 50.7337 44.6078 51.0342C44.5194 51.0342 44.4328 51.0605 44.284 51.0849C44.4252 51.344 44.5382 51.5675 44.6605 51.7854C46.7941 55.4737 48.9276 59.1608 51.0611 62.8467C51.3567 63.3575 51.5393 63.8646 51.2776 64.4392C50.9726 65.1115 50.2837 65.3782 49.429 65.1585C46.9855 64.5112 44.5426 63.8596 42.1003 63.2035C42.0118 63.1791 41.9215 63.166 41.7596 63.1321C41.3831 64.5388 40.9953 65.9285 40.6206 67.3219C40.3182 68.4487 40.0189 69.5755 39.7227 70.7023C39.5495 71.3615 39.2144 71.8723 38.4896 71.9793C37.7366 72.0882 37.2641 71.6901 36.9027 71.0647C34.296 66.5426 31.6817 62.0241 29.06 57.5095C28.8981 57.2296 28.7325 56.9461 28.5122 56.5817C28.3371 56.8597 28.1997 57.0625 28.0773 57.2728C25.4418 61.8301 22.8063 66.3892 20.1707 70.9502C19.8808 71.4516 19.5627 71.9042 18.9302 71.985C18.1056 72.092 17.5295 71.6263 17.2622 70.629C16.6435 68.3291 16.0266 66.028 15.4117 63.7256C15.3627 63.5472 15.3044 63.3706 15.2234 63.1209L9.73398 64.5763C9.01109 64.7641 8.28443 64.9519 7.5653 65.1585C6.88948 65.3463 6.29836 65.2467 5.87103 64.6664C5.44369 64.0862 5.5397 63.5397 5.87103 62.9612C8.03468 59.2353 10.1927 55.5082 12.3451 51.7797C12.4712 51.56 12.5841 51.3346 12.6462 51.2163C11.5789 50.8896 10.4663 50.7112 9.51186 50.2248C7.08716 48.9909 5.85034 46.9045 5.84092 44.2021C5.84092 42.3241 5.08788 41.0095 3.4595 40.0705C0.146246 38.1794 -0.977605 34.1173 0.936927 30.8327C1.91019 29.1613 1.89701 27.6232 0.925621 25.95C-0.983264 22.6635 0.153793 18.6258 3.47646 16.7197C5.07661 15.8051 5.84845 14.5093 5.83339 12.652C5.81655 11.7472 5.98267 10.8483 6.32185 10.0089C6.66104 9.16963 7.16633 8.40711 7.80751 7.76694C8.4487 7.12678 9.21265 6.6221 10.0537 6.28305C10.8948 5.94399 11.7957 5.77752 12.7027 5.79357C14.5627 5.80672 15.8823 5.05552 16.7822 3.44609C17.7743 1.6714 19.3048 0.593444 21.2871 0.142729C21.3939 0.106271 21.4967 0.0590785 21.5939 0.00187982H23.708L26.9083 1.34463C27.4216 1.57012 27.9772 1.68406 28.538 1.67888C29.0989 1.6737 29.6522 1.54952 30.1613 1.31459C31.2005 0.861994 32.2509 0.43757 33.2976 0L35.423 0.0169069ZM4.54949 28.427C4.58149 29.8073 4.11275 31.028 3.42939 32.2074C2.29988 34.1736 2.89289 36.5023 4.86202 37.616C7.42791 39.0677 8.70046 41.2029 8.6854 44.1551C8.6741 46.5045 10.3797 48.2003 12.7347 48.189C15.6639 48.1759 17.8063 49.4097 19.2464 51.945C20.3759 53.9488 22.7121 54.5854 24.7057 53.423C27.2528 51.9412 29.7434 51.9206 32.2923 53.423C34.2859 54.5911 36.6221 53.9638 37.7629 51.9619C39.205 49.421 41.3398 48.1834 44.269 48.189C46.6673 48.189 48.3447 46.4989 48.3352 44.0988C48.324 41.2067 49.5645 39.0921 52.0871 37.6686C54.1259 36.5174 54.7509 34.1793 53.563 32.1586C52.0852 29.6421 52.0909 27.1725 53.563 24.6466C54.7509 22.6297 54.1052 20.2935 52.057 19.1423C49.5627 17.7338 48.3164 15.638 48.3221 12.774C48.3221 10.2951 46.6541 8.62745 44.1635 8.62933C41.3247 8.62933 39.2219 7.4124 37.81 4.96351C36.5675 2.80946 34.2991 2.21978 32.1361 3.47427C29.7114 4.879 27.2867 4.88213 24.862 3.48366C22.6444 2.21038 20.4249 2.80382 19.1447 5.00858C17.7554 7.403 15.6866 8.61431 12.9061 8.63121C12.414 8.6265 11.9237 8.6897 11.449 8.81901C9.6907 9.34297 8.65342 10.8416 8.65718 12.8266C8.65718 15.5403 7.52767 17.6098 5.17827 18.9883C2.7724 20.4024 2.19447 22.5114 3.59131 24.9396C4.23259 25.9895 4.56584 27.1977 4.55326 28.427H4.54949ZM9.98437 61.5622C10.3383 61.4814 10.5491 61.442 10.7374 61.3875C12.3639 60.9518 13.9904 60.503 15.6207 60.0729C16.7332 59.7818 17.3658 60.148 17.6914 61.2429C17.8289 61.7143 17.9512 62.1819 18.0792 62.6627C18.4558 64.0279 18.8209 65.3951 19.2332 66.9088L25.2987 56.4259C25.1556 56.4259 25.0803 56.3902 25.022 56.4127C21.577 57.6635 18.0566 55.9357 16.5883 53.0586C16.3661 52.6248 15.984 52.2718 15.6263 51.8173C13.7287 55.0981 11.9008 58.2644 9.98814 61.5622H9.98437ZM41.3718 51.7703C40.9218 52.4089 40.5397 52.9065 40.2083 53.4361C38.819 55.6578 36.8198 56.8296 34.1956 56.7977C33.3936 56.7864 32.5954 56.578 31.7483 56.454L37.7724 66.8505C37.8646 66.6064 37.9324 66.4618 37.9738 66.3078C38.4055 64.7078 38.8341 63.1071 39.2596 61.5058C39.6361 60.0992 40.2197 59.763 41.6165 60.1368C43.1978 60.5612 44.7798 60.9825 46.3624 61.4006C46.5506 61.4476 46.7389 61.4589 47.0175 61.5021L41.3718 51.7703Z" />
<path d="M49 28.481C48.9996 33.2681 47.3238 37.9044 44.2627 41.5878C41.2016 45.2711 36.9477 47.7697 32.2371 48.6512C21.0329 50.7606 10.1041 43.073 8.28084 31.8058C7.58814 27.69 8.1842 23.461 9.98764 19.6963C10.3778 18.8651 11.0158 18.5142 11.7426 18.7155C12.5969 18.9519 12.9815 19.8699 12.5562 20.7879C11.8133 22.3711 11.2937 24.0494 11.0121 25.7751C9.87855 32.866 13.294 40.1158 19.4851 43.7121C30.1679 49.9164 43.5097 43.882 45.9174 31.7578C47.822 22.1677 41.0337 12.5167 31.392 11.0483C27.82 10.4695 24.1563 10.9846 20.8831 12.5259C19.6774 13.0801 18.5198 12.4225 18.714 11.2459C18.7696 11.0094 18.8726 10.7866 19.0169 10.591C19.1612 10.3954 19.3438 10.2312 19.5535 10.1081C22.8141 8.43087 26.4906 7.73104 30.1401 8.09294C37.3131 8.78375 42.7553 12.2895 46.3852 18.5142C48.1715 21.5748 48.9945 24.9236 49 28.481Z" />
<path d="M34.6127 24.2797C35.5598 24.3456 36.4103 24.334 37.2419 24.4736C38.2769 24.6495 39.2184 25.1931 39.9011 26.0089C40.5839 26.8247 40.9642 27.8607 40.9754 28.935C41.0082 31.1333 41.0082 33.3317 40.9754 35.53C40.9394 37.8383 39.1607 39.9235 36.9293 39.9778C33.6542 40.0554 30.3734 39.9099 27.0964 39.8478C26.8362 39.8396 26.5796 39.7838 26.3387 39.6829C25.4806 39.3396 24.6339 39.0157 23.8572 39.8459C21.7736 39.8459 19.6748 39.9952 17.6063 39.778C16.5986 39.6713 16.0189 38.6006 16.0133 37.4697C15.9956 33.4312 15.9956 29.3921 16.0133 25.3523C16.0176 24.6655 16.2846 24.0077 16.7569 23.52C17.2293 23.0323 17.8694 22.7536 18.5401 22.7434C20.0044 22.7066 21.4705 22.7318 22.9347 22.7434C23.1476 22.726 23.361 22.7704 23.5504 22.8714C24.2758 23.399 24.7589 22.9277 25.2779 22.499C26.5452 21.4574 27.5359 20.1714 28.4205 18.7942C29.3373 17.3568 30.6935 16.7788 32.3377 17.0756C33.8948 17.3588 34.9612 18.3422 35.3098 19.9134C35.4783 20.6757 35.3552 21.533 35.2321 22.3264C35.1336 22.9878 34.8362 23.6085 34.6127 24.2797ZM25.5014 31.0687C25.5014 32.5933 25.5204 34.1179 25.49 35.6425C25.49 36.108 25.6283 36.3932 26.0583 36.4902C27.0187 36.7094 27.9791 37.0507 28.9489 37.0857C31.3565 37.1729 33.7698 37.1206 36.1792 37.1128C37.4635 37.1128 38.1454 36.4126 38.1511 35.0975C38.1511 33.2819 38.1511 31.4663 38.1511 29.6527C38.1511 27.8953 37.5677 27.2882 35.8647 27.2823C34.5388 27.2823 33.2128 27.2979 31.8869 27.2707C31.0648 27.2533 30.5439 26.8226 30.415 26.0759C30.2862 25.3291 30.6159 24.8325 31.2391 24.4717C31.4304 24.3528 31.5792 24.1739 31.6634 23.9616C31.9778 23.1042 32.2582 22.2333 32.5423 21.3643C32.7204 20.8192 32.6143 20.3537 32.1009 20.055C31.5876 19.7563 31.0743 19.9347 30.6405 20.6466C29.4295 22.6195 27.8365 24.3174 25.9599 25.6355C25.8332 25.7407 25.7286 25.8711 25.6524 26.0188C25.5762 26.1664 25.53 26.3284 25.5166 26.4948C25.4787 28.0253 25.5014 29.5518 25.5014 31.0764V31.0687ZM22.6298 37.0818C22.6298 33.3478 22.6298 29.7012 22.6165 26.0564C22.6165 25.9245 22.4271 25.686 22.3172 25.684C21.1807 25.6569 20.0271 25.6666 18.8944 25.6666V37.0954L22.6298 37.0818Z" />
<path d="M14.4772 15.9999C14.0792 15.9869 13.702 15.8187 13.4261 15.531C13.1501 15.2434 12.9972 14.8591 13 14.4602C13.0287 14.0631 13.2064 13.6917 13.4975 13.4208C13.7885 13.1498 14.1712 12.9995 14.5685 13C14.9528 13.0273 15.313 13.1979 15.5779 13.4781C15.8429 13.7584 15.9935 14.1279 16 14.5139C15.9942 14.9131 15.8307 15.2938 15.5452 15.5723C15.2598 15.8509 14.8757 16.0047 14.4772 15.9999Z" />
</svg>
